<svg id="_x33_0" enable-background="new 0 0 64 64" height="512" viewBox="0 0 64 64" width="512" xmlns="http://www.w3.org/2000/svg"><path d="m60 19h-13v-11c0-3.86-3.14-7-7-7h-32c-3.86 0-7 3.14-7 7v48c0 3.859 3.14 7 7 7h32c3.86 0 7-3.141 7-7v-11h13c1.654 0 3-1.346 3-3v-20c0-1.654-1.346-3-3-3zm-13 2h6v2.586l-1-1-2 2-2-2-1 1zm-2 35c0 2.757-2.243 5-5 5h-32c-2.757 0-5-2.243-5-5v-48c0-2.757 2.243-5 5-5h32c2.757 0 5 2.243 5 5v11h-2v-8c0-1.103-.897-2-2-2h-34c-1.103 0-2 .897-2 2v42c0 1.103.897 2 2 2h34c1.103 0 2-.897 2-2v-8h2zm-38-13h30.184c.414 1.161 1.514 2 2.816 2h1v8h-34zm30-21v19h-30v-30h34v8h-1c-1.654 0-3 1.346-3 3zm16 21h-6v-2.586l1 1 2-2 2 2 1-1zm8-1c0 .552-.449 1-1 1h-5v-7.414l-3 3-2-2-2 2-3-3v7.414h-5c-.551 0-1-.448-1-1v-20c0-.551.449-1 1-1h5v7.414l3-3 2 2 2-2 3 3v-7.414h5c.551 0 1 .449 1 1z"/><path d="m23 5h2v2h-2z"/><path d="m35 45h-22c-1.103 0-2 .897-2 2v2c0 1.103.897 2 2 2h22c1.103 0 2-.897 2-2v-2c0-1.103-.897-2-2-2zm-14 2h2v2h-2zm-2 2h-2v-2h2zm6-2h2v2h-2zm4 0h2v2h-2zm-16 0h2v2h-2zm20 2v-2h2l.001 2z"/><path d="m13 35h20v2h-20z"/><path d="m27 31h6v2h-6z"/><path d="m21 31h4v2h-4z"/><path d="m13 27h20v2h-20z"/><path d="m13 19h20v2h-20z"/><path d="m27 23h6v2h-6z"/><path d="m21 23h4v2h-4z"/></svg>