<svg height="511pt" viewBox="0 -7 511.99908 511" width="511pt" xmlns="http://www.w3.org/2000/svg"><path d="m433.253906 330.128906v-34.082031c0-5.523437-4.480468-10-10-10-5.523437 0-10.003906 4.476563-10.003906 10v28.164063l-174.027344 95.558593v-190.265625l174.027344-95.558594v86.089844c0 5.523438 4.480469 10 10.003906 10 5.519532 0 10-4.476562 10-10v-102.992187c0-3.648438-1.988281-7.007813-5.1875-8.765625l-194.03125-106.542969c-2.996094-1.6445312-6.628906-1.6445312-9.628906 0l-194.027344 106.542969c-3.199218 1.757812-5.1875 5.117187-5.1875 8.765625v75.652343c0 5.523438 4.476563 10 10 10 5.523438 0 10.003906-4.476562 10.003906-10v-58.75l53.050782 29.132813v61.546875c0 3.628906 1.964844 6.972656 5.132812 8.738281l47.921875 26.707031c1.515625.84375 3.191407 1.265626 4.867188 1.265626 1.753906 0 3.503906-.460938 5.066406-1.378907 3.058594-1.796875 4.9375-5.078125 4.9375-8.621093v-50.960938l53.046875 29.128906v190.265625l-174.023438-95.558593v-52.835938c0-5.523438-4.480468-10-10.003906-10-5.523437 0-10 4.476562-10 10v58.753906c0 3.648438 1.988282 7.007813 5.1875 8.765625l194.027344 106.542969c1.5.824219 3.160156 1.234375 4.816406 1.234375s3.3125-.410156 4.8125-1.234375l194.03125-106.542969c3.199219-1.757812 5.1875-5.117187 5.1875-8.765625zm-128.066406-266.503906 24.148438 13.625-172.835938 94.996094-19.558594-10.742188-8.140625-4.59375 173.058594-95.117187zm45.257812 24.847656 52.027344 28.570313-173.25 95.132812-51.945312-28.523437zm-121.222656-66.5625 51.859375 28.476563-173.167969 95.179687-51.941406-28.523437zm-110.972656 196.839844v-44.691406l8.957031 4.921875 18.960938 10.699219v44.628906zm0 0"/><path d="m423.257812 247.042969c-2.632812 0-5.210937 1.058593-7.082031 2.929687-1.859375 1.859375-2.921875 4.429688-2.921875 7.070313 0 2.632812 1.0625 5.210937 2.921875 7.070312 1.871094 1.863281 4.441407 2.933594 7.082031 2.933594 2.628907 0 5.199219-1.070313 7.070313-2.933594 1.859375-1.859375 2.929687-4.4375 2.929687-7.070312 0-2.628907-1.070312-5.210938-2.929687-7.070313-1.871094-1.871094-4.441406-2.929687-7.070313-2.929687zm0 0"/><path d="m42.269531 238.609375c1.859375-1.859375 2.929688-4.4375 2.929688-7.070313 0-2.628906-1.070313-5.210937-2.929688-7.070312-1.871093-1.859375-4.441406-2.929688-7.070312-2.929688-2.640625 0-5.210938 1.070313-7.082031 2.929688-1.859376 1.859375-2.921876 4.441406-2.921876 7.070312 0 2.632813 1.0625 5.210938 2.921876 7.070313 1.871093 1.863281 4.441406 2.933594 7.082031 2.933594 2.628906 0 5.199219-1.070313 7.070312-2.933594zm0 0"/><path d="m497.09375 303.945312v-153.867187c1.519531.855469 3.207031 1.292969 4.902344 1.292969 2.5625 0 5.121094-.976563 7.074218-2.929688 3.90625-3.90625 3.90625-10.238281 0-14.144531l-14.90625-14.90625c-3.90625-3.902344-10.238281-3.902344-14.144531 0l-14.90625 14.90625c-3.90625 3.90625-3.90625 10.238281 0 14.144531 3.246094 3.246094 8.164063 3.785156 11.976563 1.636719v153.867187c-3.8125-2.152343-8.730469-1.613281-11.976563 1.632813-3.90625 3.90625-3.90625 10.242187 0 14.144531l14.90625 14.90625c1.953125 1.953125 4.511719 2.929688 7.070313 2.929688 2.5625 0 5.121094-.976563 7.074218-2.929688l14.90625-14.90625c3.902344-3.902344 3.902344-10.238281 0-14.144531-3.246093-3.242187-8.164062-3.78125-11.976562-1.632813zm0 0"/><path d="m451.804688 368.660156-20.015626-6.605468c-5.246093-1.734376-10.902343 1.117187-12.632812 6.363281-1.546875 4.679687.5625 9.679687 4.761719 11.933593l-145.980469 80.15625c-.027344-4.273437-2.808594-8.210937-7.113281-9.507812-5.289063-1.597656-10.871094 1.398438-12.464844 6.683594l-6.089844 20.183594c-1.59375 5.289062 1.398438 10.867187 6.6875 12.460937l20.179688 6.089844c.964843.292969 1.9375.429687 2.894531.429687 4.296875 0 8.265625-2.789062 9.570312-7.113281 1.351563-4.484375-.601562-9.171875-4.449218-11.464844l144.929687-79.582031c.207031 4 2.8125 7.652344 6.847657 8.984375 1.039062.34375 2.097656.507813 3.136718.507813 4.199219 0 8.109375-2.664063 9.496094-6.871094l6.605469-20.015625c.832031-2.519531.628906-5.265625-.5625-7.632813-1.195313-2.371094-3.28125-4.167968-5.800781-5zm0 0"/><path d="m200.308594 457.683594c-1.597656-5.289063-7.179688-8.28125-12.464844-6.6875-4.304688 1.300781-7.085938 5.238281-7.113281 9.511718l-145.976563-80.15625c4.195313-2.253906 6.304688-7.253906 4.757813-11.933593-1.730469-5.246094-7.390625-8.09375-12.628907-6.363281l-20.019531 6.605468c-.054687.019532-.089843.042969-.132812.066406-2.261719.78125-4.253907 2.363282-5.5 4.625-1.382813 2.519532-1.558594 5.367188-.738281 7.898438.003906.015625.003906.027344.007812.042969l6.605469 20.015625c1.390625 4.207031 5.296875 6.871094 9.496093 6.871094 1.039063 0 2.097657-.164063 3.136719-.507813 4.035157-1.332031 6.640625-4.984375 6.847657-8.984375l144.929687 79.582031c-3.847656 2.296875-5.800781 6.980469-4.449219 11.464844 1.304688 4.324219 5.277344 7.113281 9.570313 7.113281.957031 0 1.929687-.136718 2.894531-.429687l19.886719-6c.011719-.003907.023437-.007813.035156-.011719l.257813-.078125c.023437-.003906.039062-.019531.058593-.027344 2.398438-.738281 4.523438-2.359375 5.828125-4.730469 1.359375-2.472656 1.554688-5.269531.78125-7.769531zm0 0"/></svg>